<svg width="180" height="180" viewBox="0 0 180 180" fill="none" xmlns="http://www.w3.org/2000/svg">
<g filter="url(#filter0_d_4_14)">
<path d="M82.1655 43.2218C86.4613 38.9261 93.4261 38.9261 97.7218 43.2218L136.665 82.1655C140.961 86.4613 140.961 93.4261 136.665 97.7218L97.7218 136.665C93.4261 140.961 86.4612 140.961 82.1655 136.665L43.2218 97.7218C38.9261 93.4261 38.9261 86.4612 43.2218 82.1655L82.1655 43.2218Z" fill="#70E189"/>
<path d="M82.8724 43.929C86.7776 40.0238 93.1097 40.0238 97.0149 43.929L135.958 82.8724C139.864 86.7776 139.864 93.1097 135.958 97.0149L97.0149 135.958C93.1097 139.864 86.7776 139.864 82.8724 135.958L43.929 97.0149C40.0238 93.1097 40.0238 86.7776 43.929 82.8724L82.8724 43.929Z" stroke="#93FFAB" stroke-width="2"/>
</g>
<defs>
<filter id="filter0_d_4_14" x="0" y="-9.53674e-07" width="179.887" height="179.887" filterUnits="userSpaceOnUse" color-interpolation-filters="sRGB">
<feFlood flood-opacity="0" result="BackgroundImageFix"/>
<feColorMatrix in="SourceAlpha" type="matrix" values="0 0 0 0 0 0 0 0 0 0 0 0 0 0 0 0 0 0 127 0" result="hardAlpha"/>
<feOffset/>
<feGaussianBlur stdDeviation="20"/>
<feComposite in2="hardAlpha" operator="out"/>
<feColorMatrix type="matrix" values="0 0 0 0 0.439216 0 0 0 0 0.882353 0 0 0 0 0.537255 0 0 0 0.3 0"/>
<feBlend mode="normal" in2="BackgroundImageFix" result="effect1_dropShadow_4_14"/>
<feBlend mode="normal" in="SourceGraphic" in2="effect1_dropShadow_4_14" result="shape"/>
</filter>
</defs>
</svg>
