<svg width="180" height="190" viewBox="0 0 180 190" fill="none" xmlns="http://www.w3.org/2000/svg">
<g filter="url(#filter0_d_10_204)">
<path d="M84.1003 46.4737C87.5037 44.5087 91.6969 44.5087 95.1003 46.4737L128.701 65.8729C132.104 67.8378 134.201 71.4692 134.201 75.3991V114.197C134.201 118.127 132.104 121.759 128.701 123.724L95.1003 143.123C91.6969 145.088 87.5037 145.088 84.1003 143.123L50.5 123.724C47.0966 121.759 45 118.127 45 114.197V75.3991C45 71.4692 47.0966 67.8378 50.5 65.8729L84.1003 46.4737Z" fill="#AC93FF"/>
<path d="M84.1003 46.4737C87.5037 44.5087 91.6969 44.5087 95.1003 46.4737L128.701 65.8729C132.104 67.8378 134.201 71.4692 134.201 75.3991V114.197C134.201 118.127 132.104 121.759 128.701 123.724L95.1003 143.123C91.6969 145.088 87.5037 145.088 84.1003 143.123L50.5 123.724C47.0966 121.759 45 118.127 45 114.197V75.3991C45 71.4692 47.0966 67.8378 50.5 65.8729L84.1003 46.4737Z" stroke="#8564F0" stroke-width="10" stroke-linejoin="round"/>
</g>
<defs>
<filter id="filter0_d_10_204" x="0" y="0" width="179.201" height="189.597" filterUnits="userSpaceOnUse" color-interpolation-filters="sRGB">
<feFlood flood-opacity="0" result="BackgroundImageFix"/>
<feColorMatrix in="SourceAlpha" type="matrix" values="0 0 0 0 0 0 0 0 0 0 0 0 0 0 0 0 0 0 127 0" result="hardAlpha"/>
<feOffset/>
<feGaussianBlur stdDeviation="20"/>
<feComposite in2="hardAlpha" operator="out"/>
<feColorMatrix type="matrix" values="0 0 0 0 0.521569 0 0 0 0 0.392157 0 0 0 0 0.941176 0 0 0 0.3 0"/>
<feBlend mode="normal" in2="BackgroundImageFix" result="effect1_dropShadow_10_204"/>
<feBlend mode="normal" in="SourceGraphic" in2="effect1_dropShadow_10_204" result="shape"/>
</filter>
</defs>
</svg>
